<svg width="121" height="121" viewBox="0 0 121 121" fill="none" xmlns="http://www.w3.org/2000/svg">
<path d="M8.53023 34.9731C7.18242 35.3916 6.27486 36.6808 6.29224 38.1266L6.65912 67.8449C6.65912 67.8449 6.65912 72.2082 11.1004 72.0099C14.2517 71.869 16.3333 65.9389 17.2756 62.5057C17.5344 61.5636 18.7354 61.3455 19.2973 62.1348L24.2734 69.1281C25.3142 70.5898 27.0116 71.4506 28.7687 71.2919C30.6997 71.1174 32.9203 69.729 34.0789 64.8699C36.3961 55.1496 35.6237 34.1262 29.6377 33.1346C23.6517 32.1429 23.0724 34.9196 23.2655 39.4812C23.4586 44.0429 25.1964 51.9762 23.0724 49.7946C20.9483 47.6129 17.0864 34.5229 12.0658 34.5229C10.5172 34.5229 9.37214 34.7113 8.53023 34.9731Z" fill="#0D5EF9"/>
<path d="M58.8017 34.8815L57.8671 34.5721C52.5338 32.8069 46.6327 34.0723 42.5777 38.0429C39.4785 41.0794 37.1285 45.9584 37.9492 53.7866C39.9844 73.2232 53.0069 74.4767 63.1792 69.8793C65.7223 68.729 67.8715 66.5473 69.4916 63.8143C75.9159 52.9655 70.5671 38.7807 58.8017 34.8815ZM61.0861 54.1674C59.5471 61.6683 50.6163 61.1527 50.0313 54.4093C49.4462 47.668 53.6943 45.9405 53.6943 45.9405C57.6972 44.0623 62.6231 46.6664 61.0861 54.1674Z" fill="#0D5EF9"/>
<path d="M78.0796 33.8472C76.0018 34.5929 74.6231 36.6219 74.6193 38.8829C74.6096 46.3898 75.185 66.4274 75.7875 68.4365C76.5599 71.0148 81.1942 72.6015 83.5114 67.4448C85.8285 62.2882 87.3733 47.8099 88.9181 55.9415C90.4629 64.0732 92.5869 68.2382 96.8351 63.4782C101.083 58.7182 101.045 51.0962 102.435 54.1565C103.825 57.2168 98.3664 71.7864 107.851 70.7054C115.566 69.8248 115.88 44.4818 113.136 36.3502C112.565 34.6584 110.976 33.5398 109.232 33.6052C106.515 33.7064 102.049 34.7199 99.7296 39.8785C96.2539 47.6135 93.1643 48.8035 91.0402 43.0519C89.2599 38.2324 83.9555 31.7409 78.0776 33.8492L78.0796 33.8472Z" fill="#0D5EF9"/>
<path d="M59.8746 90.7496H59.7607C39.6284 90.7358 26.3491 87.0924 18.7488 83.8516C10.3626 80.2737 7.01233 78.8774 6.86558 78.7247C6.27277 78.1099 6.22642 77.0607 6.7613 76.3804C7.29811 75.7001 8.33118 75.2618 9.45694 75.2618C10.5827 75.2618 12.5001 75.8846 20.4635 79.2443C27.8243 82.3502 38.5335 86.0967 58.1174 86.1027C77.7013 86.0948 88.4105 83.2348 95.7714 80.1289C103.735 76.7691 109.246 73.9469 109.288 73.933C110.64 73.4907 112.534 73.2705 113.067 73.9508C113.6 74.6311 113.554 75.6763 112.963 76.2892C112.816 76.4419 109.273 80.0516 100.886 83.6295C93.2862 86.8722 80.0069 90.7358 59.8746 90.7496Z" fill="#0D5EF9"/>
</svg>
