<svg width="18" height="19" viewBox="0 0 18 19" fill="none" xmlns="http://www.w3.org/2000/svg">
<path d="M16.3541 8.03113H15.75V8H9V11H13.2386C12.6203 12.7464 10.9586 14 9 14C6.51487 14 4.5 11.9851 4.5 9.5C4.5 7.01487 6.51487 5 9 5C10.1471 5 11.1908 5.43275 11.9854 6.13962L14.1068 4.01825C12.7673 2.76987 10.9755 2 9 2C4.85812 2 1.5 5.35812 1.5 9.5C1.5 13.6419 4.85812 17 9 17C13.1419 17 16.5 13.6419 16.5 9.5C16.5 8.99713 16.4482 8.50625 16.3541 8.03113Z" fill="#FFC107"/>
<path d="M2.36523 6.00912L4.82936 7.81625C5.49611 6.1655 7.11086 5 9.00048 5C10.1476 5 11.1912 5.43275 11.9859 6.13962L14.1072 4.01825C12.7677 2.76987 10.976 2 9.00048 2C6.11973 2 3.62148 3.62637 2.36523 6.00912Z" fill="#FF3D00"/>
<path d="M9.00012 17C10.9374 17 12.6976 16.2586 14.0285 15.053L11.7072 13.0888C10.9289 13.6807 9.97791 14.0008 9.00012 14C7.04937 14 5.39299 12.7561 4.76899 11.0203L2.32324 12.9046C3.56449 15.3335 6.08524 17 9.00012 17Z" fill="#4CAF50"/>
<path d="M16.3541 8.03113H15.75V8H9V11H13.2386C12.9428 11.8312 12.41 12.5574 11.706 13.0891L11.7071 13.0884L14.0284 15.0526C13.8641 15.2019 16.5 13.25 16.5 9.5C16.5 8.99713 16.4483 8.50625 16.3541 8.03113Z" fill="#1976D2"/>
</svg>
